<svg id="visual" viewBox="0 0 900 600" width="900" height="600" xmlns="http://www.w3.org/2000/svg" xmlns:xlink="http://www.w3.org/1999/xlink" version="1.1"><rect x="0" y="0" width="900" height="600" fill="#001220"></rect><defs><linearGradient id="grad1_0" x1="33.3%" y1="0%" x2="100%" y2="100%"><stop offset="20%" stop-color="#001220" stop-opacity="1"></stop><stop offset="80%" stop-color="#001220" stop-opacity="1"></stop></linearGradient></defs><defs><linearGradient id="grad2_0" x1="0%" y1="0%" x2="66.7%" y2="100%"><stop offset="20%" stop-color="#001220" stop-opacity="1"></stop><stop offset="80%" stop-color="#001220" stop-opacity="1"></stop></linearGradient></defs><g transform="translate(900, 0)"><path d="M0 486.7C-66.8 483.9 -133.6 481 -186.3 449.7C-239 418.4 -277.6 358.8 -306.2 306.2C-334.7 253.5 -353.2 207.9 -381.6 158C-410 108.2 -448.4 54.1 -486.7 0L0 0Z" fill="#FFA500"></path></g><g transform="translate(0, 600)"><path d="M0 -486.7C65 -472.9 130.1 -459.1 176 -425C222 -390.8 248.9 -336.4 297 -297C345.1 -257.6 414.5 -233.3 449.7 -186.3C484.9 -139.3 485.8 -69.6 486.7 0L0 0Z" fill="#FFA500"></path></g></svg>