<svg id="visual" viewBox="0 0 900 600" width="900" height="600" xmlns="http://www.w3.org/2000/svg" xmlns:xlink="http://www.w3.org/1999/xlink" version="1.1"><rect width="900" height="600" fill="#001220"></rect><g><g transform="translate(432 420)"><path d="M0 -147L127.3 -73.5L127.3 73.5L0 147L-127.3 73.5L-127.3 -73.5Z" fill="#FFA500"></path></g><g transform="translate(868 424)"><path d="M0 -142L123 -71L123 71L0 142L-123 71L-123 -71Z" fill="#FFA500"></path></g><g transform="translate(686 80)"><path d="M0 -122L105.7 -61L105.7 61L0 122L-105.7 61L-105.7 -61Z" fill="#FFA500"></path></g><g transform="translate(160 144)"><path d="M0 -142L123 -71L123 71L0 142L-123 71L-123 -71Z" fill="#FFA500"></path></g><g transform="translate(82 479)"><path d="M0 -115L99.6 -57.5L99.6 57.5L0 115L-99.6 57.5L-99.6 -57.5Z" fill="#FFA500"></path></g></g></svg>